<svg id="Layer_1" data-name="Layer 1" xmlns="http://www.w3.org/2000/svg" viewBox="0 0 106.47 101.94"><defs><style>.cls-1{font-size:6px;font-family:MyriadPro-Regular, Myriad Pro;}.cls-2{letter-spacing:0em;}.cls-3{letter-spacing:-0.05em;}.cls-4{letter-spacing:-0.07em;}.cls-5{letter-spacing:-0.08em;}.cls-6,.cls-7{fill:none;stroke-miterlimit:10;stroke-width:0.75px;}.cls-6{stroke:#000;}.cls-7{stroke:#231f20;}</style></defs><title>G</title><text class="cls-1" transform="translate(0 55.28)">G<tspan class="cls-2" x="3.88" y="0">R</tspan><tspan class="cls-3" x="7.13" y="0">A</tspan><tspan x="10.49" y="0">VI</tspan><tspan class="cls-4" x="15.27" y="0">T</tspan><tspan class="cls-5" x="17.8" y="0">A</tspan><tspan x="21.01" y="0">TIONAL</tspan></text><circle class="cls-6" cx="83.99" cy="60.88" r="2.69"/><circle class="cls-6" cx="46.88" cy="61.69" r="2.31"/><circle class="cls-6" cx="19.02" cy="41.43" r="1.34"/><circle class="cls-6" cx="62.08" cy="38.12" r="1.96"/><circle class="cls-6" cx="43.89" cy="25.23" r="1.54"/><circle class="cls-6" cx="42.53" cy="89.27" r="1.37"/><circle class="cls-6" cx="31.85" cy="100.12" r="1.45"/><circle class="cls-6" cx="78.05" cy="23.86" r="1.37"/><circle class="cls-6" cx="89.79" cy="13.74" r="1.32"/><text x="-1.48" y="-10.12"/><line class="cls-6" x1="20.37" y1="41.43" x2="60.12" y2="38.12"/><line class="cls-6" x1="63.49" y1="39.48" x2="81.75" y2="59.38"/><line class="cls-7" x1="49.19" y1="61.69" x2="81.3" y2="60.88"/><line class="cls-7" x1="28.52" y1="57.16" x2="44.58" y2="61.69"/><line class="cls-7" x1="16.05" y1="48.28" x2="18.29" y2="42.55"/><line class="cls-7" x1="42.53" y1="87.91" x2="46.88" y2="64"/><line class="cls-7" x1="33.24" y1="99.32" x2="41.1" y2="89.93"/><line class="cls-6" x1="78.05" y1="25.23" x2="83.99" y2="58.19"/><line class="cls-6" x1="79.12" y1="23.01" x2="88.92" y2="14.73"/><line class="cls-6" x1="90.78" y1="12.86" x2="106.23" y2="0.29"/></svg>